PathFileType	4	(X/Y/Z)	C:/Users/beibeiliu/ov580/test_trc/User3\sequence.4_training_dense_left.trc
DataRate	CameraRate	NumFrames	NumMarkers	Units	OrigDataRate	OrigDataStartFrame	OrigNumFrames
120	120	13	19	mm	120	32	93
Frame#	Time	ThumbCMC			ThumbMCP			ThumbIP			ThumbTip			IndexMCP			IndexPIP			IndexTip			MiddleMCP			MiddlePIP			MiddleTip			RingMCP			RingPIP			RingTip			PinkyMCP			PinkyPIP			PinkyTip			BackHand1			BackHand2			BackHand3	
		X0	Y0	Z0	X1	Y1	Z1	X2	Y2	Z2	X3	Y3	Z3	X4	Y4	Z4	X5	Y5	Z5	X6	Y6	Z6	X7	Y7	Z7	X8	Y8	Z8	X9	Y9	Z9	X10	Y10	Z10	X11	Y11	Z11	X12	Y12	Z12	X13	Y13	Z13	X14	Y14	Z14	X15	Y15	Z15	X16	Y16	Z16	X17	Y17	Z17	X18	Y18	Z18	
31	0.258333	-147.427	-14.1888	6.0205	-131.514	-20.5297	-21.2729	-127.679	-23.6561	-46.7687	-117.227	-28.6006	-67.9069	-158.999	-2.51719	-74.3996	-155.984	-7.26366	-96.9861	-158.146	-12.5427	-123.885	-176.933	1.12987	-80.6552	-175.776	-5.98835	-106.975	-173.482	-15.4667	-137.497	-197.781	-2.57198	-70.1999	-195.368	-6.79551	-93.3774	-194.707	-16.0013	-121.82	-215.446	-6.62542	-52.8983	-215.903	-7.98372	-78.4514	-214.221	-11.8503	-98.2948	-198.619	13.6749	-19.2964	-197.971	14.2296	11.909	-163.074	11.8646	-6.78298	
32	0.266667	-148.599	-12.7131	6.76318	-134.701	-20.5343	-17.1238	-123.541	-26.1193	-44.2325	-119.469	-30.5222	-65.3366	-155.671	1.87956	-67.3634	-157.2	-6.562	-96.4582	-159.631	-19.6476	-120.486	-179.025	5.01957	-74.8214	-176.714	-4.30188	-104.161	-173.8	-28.2453	-129.514	-195.166	2.51977	-68.1898	-197.302	-5.30654	-93.4102	-196.709	-25.905	-115.494	-217.444	-3.16225	-53.945	-213.305	-8.12394	-77.9289	-212.827	-23.1892	-100.267	-201.064	16.7801	-17.6445	-200.442	15.7432	14.5265	-171.253	14.172	-2.02381	
33	0.275	-146.509	-9.73941	11.1552	-133.013	-20.9066	-14.5649	-122.858	-28.9709	-43.5622	-119.443	-36.4629	-59.831	-159.689	3.32576	-65.5023	-157.989	-10.153	-93.5965	-157.092	-36.1514	-108.66	-176.303	5.31717	-74.9602	-175.231	-11.612	-100.076	-173.633	-45.6358	-108.924	-195.015	2.98824	-68.5242	-196.926	-12.209	-90.9749	-195.629	-45.2364	-97.9747	-217.911	-0.74875	-56.3764	-213.93	-13.5959	-77.0232	-213.957	-37.4722	-89.2612	-199.023	19.8081	-15.299	-202.818	19.7244	12.6797	-171.792	19.8585	-0.29393	
34	0.283333	-150.871	-7.46699	12.2949	-133.875	-21.2655	-11.4003	-126.037	-29.3693	-37.7232	-123.39	-36.9639	-60.3328	-158.843	4.66265	-63.4225	-157.699	-19.9913	-89.8554	-157.512	-46.1157	-90.0747	-177.798	3.83497	-74.6881	-177.027	-23.6834	-93.4157	-175.796	-59.0678	-77.0077	-200.355	1.54586	-66.6802	-195.475	-24.323	-86.2547	-193.5	-54.0896	-69.7741	-220.675	-3.11707	-51.0162	-214.741	-22.6377	-74.4646	-205.774	-49.1375	-67.5922	-202.584	20.9881	-13.6892	-207.794	19.4954	18.2989	-176.452	21.3501	1.48103	
35	0.291667	-153.541	-7.53947	12.9362	-138.882	-18.1783	-15.8654	-131.62	-26.5279	-39.5821	-128.565	-35.4151	-62.4706	-160.963	5.70407	-65.4771	-156.109	-25.2386	-83.4565	-159.591	-49.1236	-69.469	-186.266	1.43784	-74.6065	-179.48	-29.6339	-83.8397	-178.228	-52.81	-52.8431	-205.205	-1.9251	-66.9813	-199.785	-33.225	-75.7372	-194.102	-47.5353	-48.4554	-223.392	-4.82867	-58.5432	-215.389	-30.8592	-68.0032	-209.237	-47.4596	-46.8271	-210.021	23.9815	-16.0263	-214.106	21.2047	16.4521	-180.53	21.0179	3.64774	
36	0.3	-158.237	-5.76369	10.6167	-144.98	-15.6221	-16.9992	-134.577	-23.5029	-40.2276	-123.693	-32.0377	-62.6492	-171.34	3.53499	-66.246	-168.364	-25.5779	-78.638	-171.681	-45.4114	-51.8475	-191.116	0.803326	-71.3896	-185.391	-31.48	-76.6131	-189.04	-41.5131	-38.2664	-210.643	-3.38839	-64.0484	-206.024	-33.4697	-66.8917	-197.579	-35.745	-30.5828	-225.816	-8.02604	-58.2281	-217.572	-32.4902	-58.7203	-212.787	-37.7764	-28.2216	-217.673	24.8119	-13.8332	-218.21	22.8801	15.1014	-185.793	22.7167	2.4005	
37	0.308333	-164.341	-4.51503	7.55204	-147.663	-13.0389	-17.5074	-134.249	-20.8902	-37.0901	-120.56	-28.0123	-56.9119	-177.479	-2.04899	-68.1664	-176.057	-33.1748	-67.8139	-176.365	-36.553	-35.0696	-199.17	-1.44994	-67.465	-195.308	-34.6997	-65.2715	-196.308	-30.0761	-27.3779	-217.61	-5.45266	-61.8824	-209.568	-36.557	-54.1408	-207.374	-26.1153	-20.1027	-234.772	-6.39717	-53.4864	-225.827	-33.9854	-48.3653	-215.98	-29.5555	-21.7242	-217.176	27.2031	-12.3608	-225.101	24.4279	16.5266	-185.69	24.8452	0.531904	
38	0.316667	-169.584	-1.32335	7.26722	-147.205	-10.3141	-13.1549	-130.024	-14.9399	-35.042	-121.172	-21.8059	-51.8457	-181.684	1.6557	-64.8771	-179.146	-32.6633	-61.4045	-184.399	-27.5552	-29.1824	-199.605	-0.80577	-66.94	-200.502	-33.586	-58.6017	-201.145	-18.0095	-20.9894	-218.684	-5.50556	-61.4161	-216.058	-34.2564	-50.423	-210.907	-22.9929	-18.9404	-235.877	-8.27273	-52.5495	-230.048	-32.0924	-41.0675	-223.599	-17.5603	-11.1314	-224.843	28.5783	-13.7764	-223.253	25.7144	15.9676	-189.302	27.2907	1.15697	
39	0.325	-173.02	2.9862	5.8275	-153.789	-3.2746	-13.2197	-130.454	-5.73286	-36.8796	-114.78	-9.75274	-54.8247	-187.691	1.23711	-68.7554	-185.668	-27.5197	-63.9479	-186.212	-18.2647	-28.8989	-209.124	-0.532248	-69.5009	-205.514	-29.5262	-56.3169	-205.581	-13.9375	-24.0142	-222.705	-1.49318	-61.3806	-220.588	-30.0393	-48.5417	-215.81	-15.7968	-16.8079	-240.17	-7.83683	-53.2253	-231.323	-27.88	-37.8285	-227.175	-9.71953	-12.6193	-225.722	33.9017	-14.9128	-229.603	27.2057	15.1649	-192.676	28.6279	1.57986	
40	0.333333	-168.379	7.73098	3.54519	-151.787	5.52781	-17.0217	-130.16	5.31716	-36.889	-114.607	2.09504	-53.7334	-191.028	11.2247	-71.9612	-187.642	-18.6688	-66.3732	-190.561	-11.9636	-34.7527	-210.596	9.01209	-71.2687	-207.39	-21.1312	-63.2237	-202.218	-5.16918	-26.8565	-228.033	5.00969	-63.1022	-222.243	-23.668	-53.2689	-213.879	-9.69453	-20.8057	-241.3	2.56799	-54.0326	-234.281	-21.8949	-40.8498	-225.917	-7.15503	-14.8053	-232.037	38.6514	-17.8445	-230.362	30.733	15.4517	-197.571	34.569	0.423792	
41	0.341667	-169.649	17.3385	2.22461	-154.895	14.443	-17.5131	-130.93	18.0571	-42.9644	-120.704	17.9503	-61.4821	-189.627	30.0013	-71.7728	-188.214	-1.10289	-76.6063	-191.71	-1.48522	-43.1416	-212.378	24.7601	-75.0396	-207.449	-6.57129	-70.9031	-208.689	3.16122	-32.4661	-230.65	19.1976	-65.3553	-221.011	-10.1012	-59.5525	-213.435	-2.5545	-27.2916	-245.481	11.5051	-57.3526	-233.353	-10.9584	-45.3848	-229.293	2.17427	-15.5337	-231.625	46.7113	-15.6526	-229.055	36.1544	14.8109	-196.848	41.3439	1.59214	
42	0.35	-173.67	25.0285	-3.40839	-152.72	24.5229	-21.3586	-139.462	27.8179	-49.1978	-127.879	26.644	-66.057	-189.214	43.3635	-73.4877	-189.438	9.82363	-77.7084	-190.661	11.0424	-43.4642	-213.315	35.6593	-77.1804	-210.714	4.82976	-74.3125	-205.538	13.3717	-33.7612	-231.709	29.5507	-66.2421	-226.703	-0.909682	-59.9512	-216.163	5.78047	-29.4113	-246.727	21.688	-58.6836	-233.662	-1.45394	-49.1959	-228.013	7.91188	-20.5644	-232.926	54.1743	-13.5748	-232.467	41.8025	15.1472	-200.123	48.8891	0.671067	
43	0.358333	-176.25	25.5019	-4.77246	-161.355	24.4099	-27.3951	-143.657	24.5966	-48.7786	-130.138	24.3613	-72.1919	-198.227	41.5205	-77.2233	-191.915	10.4263	-82.1661	-194.422	7.78091	-48.0811	-218.775	38.2328	-76.4021	-211.049	3.99877	-74.7151	-210.882	12.5334	-37.7841	-233.29	28.402	-70.5662	-229.377	0.887711	-64.4188	-223.05	7.73327	-29.3864	-246.451	23.3	-61.8997	-238.191	-0.0875308	-51.1436	-232.276	7.63188	-23.6293	-234.798	57.5569	-19.3066	-238.887	45.1324	12.8114	-201.602	50.5584	-1.87719	
